<svg xmlns="http://www.w3.org/2000/svg" viewBox="0 0 64 64">
  <rect width="64" height="64" rx="14" fill="#171b19"/>
  <path d="M11 17c8-2 15 0 21 5 6-5 13-7 21-5v32c-8-2-15 0-21 5-6-5-13-7-21-5V17Z" fill="#f0dfbc" stroke="#f0dfbc" stroke-width="2" stroke-linejoin="round"/>
  <path d="M32 22v32" stroke="#171b19" stroke-width="2"/>
  <path d="m18 28 3-4 3 4-3 4-3-4Zm2 11h7m-3-4v8" fill="none" stroke="#171b19" stroke-width="2.5" stroke-linecap="round" stroke-linejoin="round"/>
  <path d="M39 29c3-3 6-3 9 0m-9 9c3 3 6 3 9 0" fill="none" stroke="#b94f2e" stroke-width="2.5" stroke-linecap="round"/>
</svg>
